# xmcd CD database file
#
# Track frame offsets:
#	150
#	27505
#	59472
#	81416
#	101234
#	143995
#	181019
#	203932
#	223024
#	249056
#	281611
#	307143
#
# Disc length: 4439 seconds
#
# Revision: 0
# Processed by: cddbd v1.5.2PL0 Copyright (c) Steve Scherf et al.
# Submitted via: CDex 1.70beta2
#
DISCID=b511550c
DTITLE=Gernot Ziegler - Mobile Home
DYEAR=2010
DGENRE=Jazz
TTITLE0=You
TTITLE1=Moho Blues
TTITLE2=Winter
TTITLE3=Awaiting Spring
TTITLE4=Fünf
TTITLE5=Floating
TTITLE6=Beflügelt
TTITLE7=Three Clowns
TTITLE8=Schwarzwaldstraße
TTITLE9=Strom Weg
TTITLE10=Step Around
TTITLE11=Retrospective
EXTD=YEAR: 2010
EXTT0=
EXTT1=
EXTT2=
EXTT3=
EXTT4=
EXTT5=
EXTT6=
EXTT7=
EXTT8=
EXTT9=
EXTT10=
EXTT11=
PLAYORDER=
